<svg width="904" height="152" viewBox="0 0 904 152" fill="none" xmlns="http://www.w3.org/2000/svg">
<path d="M864.434 83.5702C860.767 83.6108 857.112 83.1341 853.578 82.1541L864.198 58.5531L874.818 82.1541C871.449 83.1518 867.947 83.6293 864.434 83.5702ZM902.196 101.507L877.415 47.4606C874.582 41.5604 870.806 38.9643 865.142 38.9643H864.198C858.298 38.9643 854.522 41.5604 851.689 47.4606L826.908 101.507C824.548 106.935 826.2 111.655 831.157 113.543C832.189 114.034 833.311 114.306 834.453 114.344C835.595 114.382 836.733 114.184 837.795 113.764C838.858 113.343 839.823 112.708 840.629 111.899C841.436 111.09 842.068 110.123 842.485 109.059L848.149 97.2588C853.649 98.9797 859.379 99.855 865.142 99.8549C870.679 99.9334 876.188 99.0552 881.427 97.2588L886.855 109.059C887.272 110.123 887.904 111.09 888.711 111.899C889.517 112.708 890.482 113.343 891.545 113.764C892.607 114.184 893.745 114.382 894.887 114.344C896.029 114.306 897.151 114.034 898.183 113.543C899.24 113.019 900.182 112.291 900.956 111.402C901.73 110.512 902.32 109.478 902.693 108.36C903.066 107.241 903.214 106.06 903.128 104.884C903.043 103.708 902.726 102.56 902.196 101.507ZM810.388 97.0228H772.39L809.916 63.2733C815.344 58.5531 817.468 54.5409 817.468 49.5847V48.8767C817.468 42.7404 813.692 38.9643 806.847 38.9643H758.914C757.72 38.9033 756.527 39.0935 755.411 39.5226C754.295 39.9517 753.282 40.6102 752.437 41.4555C751.591 42.3008 750.933 43.314 750.504 44.4297C750.075 45.5455 749.884 46.7388 749.945 47.9327C749.896 49.1024 750.098 50.2691 750.538 51.3542C750.978 52.4392 751.645 53.4173 752.495 54.2225C753.345 55.0277 754.358 55.6413 755.465 56.022C756.572 56.4026 757.748 56.5414 758.914 56.429H794.079L757.734 89.2344C750.653 95.6067 749.001 99.3829 749.001 104.103V105.047C749.001 111.183 753.014 114.96 759.386 114.96H810.128C811.303 115.025 812.479 114.847 813.581 114.434C814.683 114.022 815.688 113.385 816.531 112.564C817.374 111.743 818.037 110.756 818.479 109.665C818.921 108.574 819.131 107.403 819.096 106.227C819.268 105.019 819.165 103.788 818.794 102.626C818.423 101.463 817.795 100.4 816.955 99.5144C816.115 98.6293 815.086 97.9454 813.945 97.5139C812.804 97.0824 811.579 96.9145 810.364 97.0228M730.829 97.0228H692.831L730.357 63.2733C735.785 58.5531 737.909 54.5409 737.909 49.5847V48.8767C737.909 42.7404 734.133 38.9643 727.288 38.9643H679.378C678.184 38.9033 676.991 39.0935 675.875 39.5226C674.76 39.9517 673.747 40.6102 672.901 41.4555C672.056 42.3008 671.397 43.314 670.968 44.4297C670.539 45.5455 670.349 46.7388 670.41 47.9327C670.361 49.1024 670.563 50.2691 671.003 51.3542C671.443 52.4392 672.11 53.4173 672.96 54.2225C673.81 55.0277 674.823 55.6413 675.93 56.022C677.037 56.4026 678.213 56.5414 679.378 56.429H714.544L678.198 89.2344C671.118 95.6067 669.466 99.3829 669.466 104.103V105.047C669.466 111.183 673.478 114.96 679.85 114.96H730.593C731.768 115.025 732.943 114.847 734.046 114.434C735.148 114.022 736.152 113.385 736.995 112.564C737.839 111.743 738.502 110.756 738.944 109.665C739.385 108.574 739.595 107.403 739.561 106.227C740.033 100.563 736.729 97.0228 730.829 97.0228ZM645.157 38.0202C643.916 37.9362 642.67 38.1148 641.503 38.5444C640.335 38.974 639.271 39.645 638.38 40.5135C637.49 41.3821 636.792 42.4287 636.333 43.585C635.874 44.7414 635.664 45.9816 635.716 47.2246V105.755C635.686 106.992 635.911 108.223 636.377 109.369C636.844 110.515 637.542 111.553 638.428 112.417C639.315 113.281 640.37 113.953 641.527 114.39C642.685 114.828 643.921 115.022 645.157 114.96C646.398 115.044 647.643 114.865 648.811 114.435C649.979 114.006 651.042 113.335 651.933 112.466C652.824 111.598 653.522 110.551 653.981 109.395C654.44 108.238 654.65 106.998 654.597 105.755V47.2246C654.591 45.9976 654.341 44.784 653.862 43.6546C653.382 42.5251 652.683 41.5023 651.804 40.6457C650.926 39.7892 649.886 39.1159 648.744 38.6651C647.603 38.2144 646.384 37.9952 645.157 38.0202ZM594.887 75.0738H573.646V55.957H594.887C596.143 55.9309 597.391 56.167 598.551 56.6504C599.711 57.1338 600.758 57.8537 601.624 58.7643C602.49 59.6749 603.157 60.756 603.582 61.9388C604.006 63.1215 604.18 64.3798 604.091 65.6334C604.175 66.8747 603.997 68.1198 603.567 69.2874C603.137 70.4551 602.466 71.519 601.598 72.4098C600.729 73.3006 599.683 73.9983 598.526 74.4573C597.37 74.9164 596.13 75.1264 594.887 75.0738ZM594.887 38.7283H564.441C563.248 38.6673 562.054 38.8575 560.939 39.2866C559.823 39.7157 558.81 40.3742 557.964 41.2195C557.119 42.0648 556.46 43.078 556.031 44.1937C555.602 45.3094 555.412 46.5028 555.473 47.6966V105.991C555.439 107.198 555.655 108.4 556.108 109.519C556.562 110.639 557.243 111.652 558.108 112.495C558.973 113.337 560.003 113.992 561.134 114.416C562.265 114.84 563.471 115.025 564.677 114.96C565.871 115.021 567.065 114.83 568.18 114.401C569.296 113.972 570.309 113.314 571.155 112.468C572 111.623 572.658 110.61 573.087 109.494C573.517 108.378 573.707 107.185 573.646 105.991V92.3026H594.887C611.407 92.3026 621.792 80.7381 621.792 65.3974C621.792 50.0567 611.195 38.7283 594.91 38.7283M481.625 97.7308C469.589 97.7308 461.093 88.7624 461.093 76.4899C461.093 71.0442 463.256 65.8216 467.106 61.9709C470.957 58.1203 476.18 55.957 481.625 55.957C487.071 55.957 492.294 58.1203 496.144 61.9709C499.995 65.8216 502.158 71.0442 502.158 76.4899C502.158 88.7624 494.134 97.7308 481.625 97.7308ZM481.625 38.0202C476.528 37.8918 471.456 38.7973 466.718 40.6821C461.979 42.5669 457.672 45.3919 454.055 48.9868C450.438 52.5817 447.587 56.872 445.673 61.5989C443.759 66.3257 442.823 71.3912 442.92 76.4899C442.951 86.7553 447.059 96.5878 454.34 103.824C461.621 111.061 471.478 115.109 481.743 115.078C492.009 115.046 501.841 110.938 509.078 103.657C516.315 96.3766 520.362 86.5193 520.331 76.2539C520.331 54.3049 503.574 38.0202 481.625 38.0202ZM394.066 96.7868H378.489V56.193H394.066C406.574 56.193 415.071 63.7453 415.071 76.2539C415.071 88.7624 406.81 96.7868 394.066 96.7868ZM394.066 38.7283H369.285C368.053 38.718 366.832 38.957 365.695 39.4308C364.558 39.9046 363.529 40.6035 362.669 41.4854C361.809 42.3673 361.137 43.4139 360.692 44.5625C360.247 45.711 360.039 46.9377 360.08 48.1687V105.283C360.046 106.49 360.262 107.692 360.716 108.811C361.169 109.93 361.85 110.944 362.715 111.786C363.58 112.629 364.611 113.284 365.741 113.708C366.872 114.132 368.079 114.317 369.285 114.252H394.066C416.251 114.252 433.007 98.9109 433.007 76.2539C433.007 53.5969 416.251 38.7283 394.066 38.7283ZM309.338 97.7308C297.302 97.7308 288.805 88.7624 288.805 76.4899C288.805 71.0442 290.968 65.8216 294.819 61.9709C298.67 58.1203 303.892 55.957 309.338 55.957C314.784 55.957 320.006 58.1203 323.857 61.9709C327.708 65.8216 329.871 71.0442 329.871 76.4899C329.871 88.7624 321.847 97.7308 309.338 97.7308ZM309.338 38.0202C304.24 37.8918 299.169 38.7973 294.43 40.6821C289.692 42.5669 285.384 45.3919 281.767 48.9868C278.15 52.5817 275.299 56.872 273.385 61.5989C271.472 66.3257 270.535 71.3912 270.632 76.4899C270.664 86.7553 274.772 96.5878 282.052 103.824C289.333 111.061 299.191 115.109 309.456 115.078C319.721 115.046 329.554 110.938 336.79 103.657C344.027 96.3766 348.075 86.5193 348.044 76.2539C348.044 54.3049 331.287 38.0202 309.338 38.0202ZM222.014 96.7868H206.438V56.193H222.014C234.523 56.193 243.019 63.7453 243.019 76.2539C243.019 88.7624 234.523 96.7868 222.014 96.7868ZM222.014 38.7283H197.21C195.978 38.718 194.757 38.957 193.62 39.4308C192.483 39.9046 191.454 40.6035 190.594 41.4854C189.734 42.3673 189.062 43.4139 188.617 44.5625C188.172 45.711 187.964 46.9377 188.005 48.1687V105.283C187.971 106.49 188.187 107.692 188.641 108.811C189.094 109.93 189.775 110.944 190.64 111.786C191.505 112.629 192.535 113.284 193.666 113.708C194.797 114.132 196.004 114.317 197.21 114.252H221.991C244.176 114.252 260.932 98.9109 260.932 76.2539C260.932 53.5969 243.963 38.7283 222.014 38.7283Z" fill="black"/>
<path d="M864.434 83.5702C860.767 83.6108 857.112 83.1341 853.578 82.1541L864.198 58.5531L874.818 82.1541C871.449 83.1518 867.947 83.6293 864.434 83.5702ZM902.196 101.507L877.415 47.4606C874.582 41.5604 870.806 38.9643 865.142 38.9643H864.198C858.298 38.9643 854.522 41.5604 851.689 47.4606L826.908 101.507C824.548 106.935 826.2 111.655 831.157 113.543C832.189 114.034 833.311 114.306 834.453 114.344C835.595 114.382 836.733 114.184 837.795 113.764C838.858 113.343 839.823 112.708 840.629 111.899C841.436 111.09 842.068 110.123 842.485 109.059L848.149 97.2588C853.649 98.9797 859.379 99.855 865.142 99.8549C870.679 99.9334 876.188 99.0552 881.427 97.2588L886.855 109.059C887.272 110.123 887.904 111.09 888.711 111.899C889.517 112.708 890.482 113.343 891.545 113.764C892.607 114.184 893.745 114.382 894.887 114.344C896.029 114.306 897.151 114.034 898.183 113.543C899.24 113.019 900.182 112.291 900.956 111.402C901.73 110.512 902.32 109.478 902.693 108.36C903.066 107.241 903.214 106.06 903.128 104.884C903.043 103.708 902.726 102.56 902.196 101.507ZM810.388 97.0228H772.39L809.916 63.2733C815.344 58.5531 817.468 54.5409 817.468 49.5847V48.8767C817.468 42.7404 813.692 38.9643 806.847 38.9643H758.914C757.72 38.9033 756.527 39.0935 755.411 39.5226C754.295 39.9517 753.282 40.6102 752.437 41.4555C751.591 42.3008 750.933 43.314 750.504 44.4297C750.075 45.5455 749.884 46.7388 749.945 47.9327C749.896 49.1024 750.098 50.2691 750.538 51.3542C750.978 52.4392 751.645 53.4173 752.495 54.2225C753.345 55.0277 754.358 55.6413 755.465 56.022C756.572 56.4026 757.748 56.5414 758.914 56.429H794.079L757.734 89.2344C750.653 95.6067 749.001 99.3829 749.001 104.103V105.047C749.001 111.183 753.014 114.96 759.386 114.96H810.128C811.303 115.025 812.479 114.847 813.581 114.434C814.683 114.022 815.688 113.385 816.531 112.564C817.374 111.743 818.037 110.756 818.479 109.665C818.921 108.574 819.131 107.403 819.096 106.227C819.268 105.019 819.165 103.788 818.794 102.626C818.423 101.463 817.795 100.4 816.955 99.5144C816.115 98.6293 815.086 97.9454 813.945 97.5139C812.804 97.0824 811.579 96.9145 810.364 97.0228M730.829 97.0228H692.831L730.357 63.2733C735.785 58.5531 737.909 54.5409 737.909 49.5847V48.8767C737.909 42.7404 734.133 38.9643 727.288 38.9643H679.378C678.184 38.9033 676.991 39.0935 675.875 39.5226C674.76 39.9517 673.747 40.6102 672.901 41.4555C672.056 42.3008 671.397 43.314 670.968 44.4297C670.539 45.5455 670.349 46.7388 670.41 47.9327C670.361 49.1024 670.563 50.2691 671.003 51.3542C671.443 52.4392 672.11 53.4173 672.96 54.2225C673.81 55.0277 674.823 55.6413 675.93 56.022C677.037 56.4026 678.213 56.5414 679.378 56.429H714.544L678.198 89.2344C671.118 95.6067 669.466 99.3829 669.466 104.103V105.047C669.466 111.183 673.478 114.96 679.85 114.96H730.593C731.768 115.025 732.943 114.847 734.046 114.434C735.148 114.022 736.152 113.385 736.995 112.564C737.839 111.743 738.502 110.756 738.944 109.665C739.385 108.574 739.595 107.403 739.561 106.227C740.033 100.563 736.729 97.0228 730.829 97.0228ZM645.157 38.0202C643.916 37.9362 642.67 38.1148 641.503 38.5444C640.335 38.974 639.271 39.645 638.38 40.5135C637.49 41.3821 636.792 42.4287 636.333 43.585C635.874 44.7414 635.664 45.9816 635.716 47.2246V105.755C635.686 106.992 635.911 108.223 636.377 109.369C636.844 110.515 637.542 111.553 638.428 112.417C639.315 113.281 640.37 113.953 641.527 114.39C642.685 114.828 643.921 115.022 645.157 114.96C646.398 115.044 647.643 114.865 648.811 114.435C649.979 114.006 651.042 113.335 651.933 112.466C652.824 111.598 653.522 110.551 653.981 109.395C654.44 108.238 654.65 106.998 654.597 105.755V47.2246C654.591 45.9976 654.341 44.784 653.862 43.6546C653.382 42.5251 652.683 41.5023 651.804 40.6457C650.926 39.7892 649.886 39.1159 648.744 38.6651C647.603 38.2144 646.384 37.9952 645.157 38.0202ZM594.887 75.0738H573.646V55.957H594.887C596.143 55.9309 597.391 56.167 598.551 56.6504C599.711 57.1338 600.758 57.8537 601.624 58.7643C602.49 59.6749 603.157 60.756 603.582 61.9388C604.006 63.1215 604.18 64.3798 604.091 65.6334C604.175 66.8747 603.997 68.1198 603.567 69.2874C603.137 70.4551 602.466 71.519 601.598 72.4098C600.729 73.3006 599.683 73.9983 598.526 74.4573C597.37 74.9164 596.13 75.1264 594.887 75.0738ZM594.887 38.7283H564.441C563.248 38.6673 562.054 38.8575 560.939 39.2866C559.823 39.7157 558.81 40.3742 557.964 41.2195C557.119 42.0648 556.46 43.078 556.031 44.1937C555.602 45.3094 555.412 46.5028 555.473 47.6966V105.991C555.439 107.198 555.655 108.4 556.108 109.519C556.562 110.639 557.243 111.652 558.108 112.495C558.973 113.337 560.003 113.992 561.134 114.416C562.265 114.84 563.471 115.025 564.677 114.96C565.871 115.021 567.065 114.83 568.18 114.401C569.296 113.972 570.309 113.314 571.155 112.468C572 111.623 572.658 110.61 573.087 109.494C573.517 108.378 573.707 107.185 573.646 105.991V92.3026H594.887C611.407 92.3026 621.792 80.7381 621.792 65.3974C621.792 50.0567 611.195 38.7283 594.91 38.7283M481.625 97.7308C469.589 97.7308 461.093 88.7624 461.093 76.4899C461.093 71.0442 463.256 65.8216 467.106 61.9709C470.957 58.1203 476.18 55.957 481.625 55.957C487.071 55.957 492.294 58.1203 496.144 61.9709C499.995 65.8216 502.158 71.0442 502.158 76.4899C502.158 88.7624 494.134 97.7308 481.625 97.7308ZM481.625 38.0202C476.528 37.8918 471.456 38.7973 466.718 40.6821C461.979 42.5669 457.672 45.3919 454.055 48.9868C450.438 52.5817 447.587 56.872 445.673 61.5989C443.759 66.3257 442.823 71.3912 442.92 76.4899C442.951 86.7553 447.059 96.5878 454.34 103.824C461.621 111.061 471.478 115.109 481.743 115.078C492.009 115.046 501.841 110.938 509.078 103.657C516.315 96.3766 520.362 86.5193 520.331 76.2539C520.331 54.3049 503.574 38.0202 481.625 38.0202ZM394.066 96.7868H378.489V56.193H394.066C406.574 56.193 415.071 63.7453 415.071 76.2539C415.071 88.7624 406.81 96.7868 394.066 96.7868ZM394.066 38.7283H369.285C368.053 38.718 366.832 38.957 365.695 39.4308C364.558 39.9046 363.529 40.6035 362.669 41.4854C361.809 42.3673 361.137 43.4139 360.692 44.5625C360.247 45.711 360.039 46.9377 360.08 48.1687V105.283C360.046 106.49 360.262 107.692 360.716 108.811C361.169 109.93 361.85 110.944 362.715 111.786C363.58 112.629 364.611 113.284 365.741 113.708C366.872 114.132 368.079 114.317 369.285 114.252H394.066C416.251 114.252 433.007 98.9109 433.007 76.2539C433.007 53.5969 416.251 38.7283 394.066 38.7283ZM309.338 97.7308C297.302 97.7308 288.805 88.7624 288.805 76.4899C288.805 71.0442 290.968 65.8216 294.819 61.9709C298.67 58.1203 303.892 55.957 309.338 55.957C314.784 55.957 320.006 58.1203 323.857 61.9709C327.708 65.8216 329.871 71.0442 329.871 76.4899C329.871 88.7624 321.847 97.7308 309.338 97.7308ZM309.338 38.0202C304.24 37.8918 299.169 38.7973 294.43 40.6821C289.692 42.5669 285.384 45.3919 281.767 48.9868C278.15 52.5817 275.299 56.872 273.385 61.5989C271.472 66.3257 270.535 71.3912 270.632 76.4899C270.664 86.7553 274.772 96.5878 282.052 103.824C289.333 111.061 299.191 115.109 309.456 115.078C319.721 115.046 329.554 110.938 336.79 103.657C344.027 96.3766 348.075 86.5193 348.044 76.2539C348.044 54.3049 331.287 38.0202 309.338 38.0202ZM222.014 96.7868H206.438V56.193H222.014C234.523 56.193 243.019 63.7453 243.019 76.2539C243.019 88.7624 234.523 96.7868 222.014 96.7868ZM222.014 38.7283H197.21C195.978 38.718 194.757 38.957 193.62 39.4308C192.483 39.9046 191.454 40.6035 190.594 41.4854C189.734 42.3673 189.062 43.4139 188.617 44.5625C188.172 45.711 187.964 46.9377 188.005 48.1687V105.283C187.971 106.49 188.187 107.692 188.641 108.811C189.094 109.93 189.775 110.944 190.64 111.786C191.505 112.629 192.535 113.284 193.666 113.708C194.797 114.132 196.004 114.317 197.21 114.252H221.991C244.176 114.252 260.932 98.9109 260.932 76.2539C260.932 53.5969 243.963 38.7283 222.014 38.7283Z" fill="black"/>
<path d="M67.4097 0C111.166 0 144.821 30.1857 144.821 74.9332C144.821 119.681 111.166 151.047 67.3625 151.047H18.178C13.5816 151.258 9.08903 149.637 5.68637 146.54C2.28372 143.443 0.248994 139.122 0.0287995 134.526V18.8808C-0.104924 16.5269 0.227954 14.1698 1.0083 11.9451C1.78864 9.72027 3.00105 7.67167 4.57582 5.91705C6.1506 4.16243 8.05667 2.73639 10.1844 1.72093C12.3122 0.705473 14.6197 0.12062 16.9743 0L67.4097 0Z" fill="#FF6900"/>
<path d="M117.774 58.743C117.538 60.6074 115.414 60.6074 114.376 58.979C111.308 53.8103 107.295 52.8427 100.947 52.3707C96.2265 52.1347 90.7275 52.6067 85.4173 52.6067H85.1813L84.8037 52.3943C84.59 52.2167 84.4545 51.9626 84.426 51.6863C85.3701 47.2257 89.1462 39.0125 93.1348 38.2573C94.9993 38.0213 99.2711 37.5492 101.608 37.5492C112.417 37.5256 118.246 50.0342 117.774 58.743V58.743ZM56.4588 101.484C64.4401 103.609 72.7166 104.406 80.9567 103.845C91.7472 103.112 102.186 99.7057 111.331 93.9321C107.933 102.924 94.4093 108.565 81.6647 109.91C81.6647 110.618 81.4287 111.066 81.4287 111.774C89.5321 111.444 97.4387 109.178 104.487 105.166C102.127 113.875 90.3263 117.439 79.517 118.147C79.2495 118.791 78.9339 119.414 78.573 120.011C83.9219 120.129 89.2588 119.453 94.4093 118.005C89.4295 127.21 68.2593 133.582 50.3698 125.085C54.1045 117.757 56.1984 109.704 56.506 101.484H56.4588ZM115.65 38.7293C113.673 36.8486 111.344 35.3777 108.796 34.4015C106.248 33.4253 103.532 32.9631 100.805 33.0415C93.7248 33.0415 87.8718 34.9059 79.1394 35.1419C73.2391 35.378 67.8345 22.4682 60.7778 20.7689C60.306 19.3837 59.5092 18.1318 58.454 17.1179C57.3988 16.1041 56.1159 15.3579 54.713 14.9418C53.31 14.5258 51.8278 14.4521 50.3905 14.7268C48.9532 15.0015 47.6026 15.6166 46.452 16.5207C42.4634 14.1606 36.2328 15.3643 36.2328 19.9193C31.7722 18.5268 26.0135 20.8633 28.468 26.9996C17.3991 27.2356 15.5347 37.2188 22.8038 38.0685C12.9621 43.3787 17.4463 52.8191 25.4707 51.0726C26.9104 65.2332 33.2354 83.5948 22.8746 88.1026C17.9754 89.298 12.8429 89.1348 8.02953 87.6306L0.00518799 85.4121V92.7048C6.65446 94.576 13.5365 95.4899 20.4437 95.4189C34.0615 94.0265 34.8167 82.7452 34.0615 72.8092C33.3062 62.8731 30.0965 51.9223 31.2529 43.8271L30.7809 43.3551C25.8483 48.5237 22.5442 47.1313 22.0721 45.4556C21.5293 42.2458 27.288 38.0213 30.6865 36.6052C30.6865 36.3692 30.9225 36.1332 30.9225 35.8972C27.8544 36.3692 24.1018 35.8972 23.8422 33.7967C23.5826 31.6962 29.0108 28.6281 36.1147 29.3361C36.3508 29.3361 36.3508 29.1001 36.5868 29.1001L35.2179 28.3212C34.866 28.24 34.5375 28.0791 34.2576 27.8509C33.9777 27.6227 33.7539 27.3333 33.6034 27.005C33.4529 26.6767 33.3798 26.3182 33.3897 25.9572C33.3995 25.5962 33.4921 25.2423 33.6602 24.9227C34.1855 24.3749 34.8275 23.9525 35.5384 23.6869C36.2494 23.4213 37.011 23.3194 37.7668 23.3886C39.9785 23.349 42.1737 23.7751 44.2099 24.6395C44.4459 24.6395 44.4459 24.4035 44.6819 24.4035C44.1648 23.9955 43.6974 23.5281 43.2895 23.011C43.004 22.6842 42.8466 22.2649 42.8466 21.831C42.8466 21.397 43.004 20.9777 43.2895 20.6509C44.2132 20.1937 45.2574 20.0389 46.274 20.2083C47.2907 20.3778 48.2282 20.8629 48.9537 21.595L50.1102 22.7514H50.4878L50.8182 22.539C50.4097 22.1169 50.1596 21.5666 50.1102 20.9813C50.031 20.8142 49.986 20.6331 49.9776 20.4484C49.9693 20.2637 49.9978 20.0792 50.0615 19.9056C50.1252 19.7321 50.2229 19.5729 50.3487 19.4375C50.4746 19.3021 50.6261 19.1931 50.7946 19.1168H51.0306C51.5637 19.0212 52.1131 19.0791 52.6146 19.2839C53.116 19.4886 53.5489 19.8318 53.8627 20.2733C54.4625 21.1783 54.9313 22.1636 55.2552 23.1998C52.4609 23.3221 49.7254 24.0427 47.2336 25.313C44.7418 26.5834 42.5517 28.3738 40.8114 30.5633C38.9143 33.3685 37.6744 36.5655 37.1841 39.9162C36.6937 43.2669 36.9655 46.6851 37.9792 49.9162C39.6766 57.1687 41.9576 64.2722 44.7999 71.1571V71.3931C50.5114 87.6306 61.3206 127.705 8.90277 148.946C11.6556 150.261 14.656 150.977 17.706 151.047H23.1106C32.2244 146.439 40.1855 139.841 46.4048 131.741C70.4306 142.22 92.2616 136.886 101.726 119.374C104.691 117.516 107.195 115.008 109.047 112.04C110.899 109.071 112.052 105.72 112.417 102.24C114.117 100.126 115.308 97.649 115.897 95.0011C116.487 92.3532 116.459 89.6051 115.815 86.9698C115.579 86.0257 114.659 86.0257 113.219 86.7338C93.6776 98.5343 76.4961 100.352 56.0104 94.2861C55.4647 87.8611 54.5188 81.4765 53.1783 75.1693C52.7063 66.9325 55.2788 62.8967 70.2182 67.853C76.7994 69.6552 82.9058 72.8776 88.1078 77.2934C89.6655 78.4498 91.8604 79.8895 93.0404 78.851C93.417 78.3764 93.6945 77.8311 93.8567 77.2474C94.0188 76.6636 94.0623 76.0533 93.9844 75.4525C93.5365 70.2935 92.077 65.2732 89.6891 60.6782C94.162 60.4336 98.6451 60.4336 103.118 60.6782C104.643 60.7551 106.109 61.2893 107.325 62.2112C108.542 63.1331 109.452 64.4 109.939 65.8469C111.496 70.5671 120.772 69.2454 121.48 65.3748C122.872 57.1381 123.344 46.258 115.343 38.7293H115.65V38.7293ZM11.0977 109.532C7.41181 109.296 3.71464 109.296 0.028789 109.532V114.465C6.35386 113.073 10.248 112.364 10.248 112.364L11.0977 109.532Z" fill="black"/>
<path d="M69.9822 57.964C61.7454 56.0996 52.6118 53.7159 47.8444 46.6592C47.8444 46.4231 47.6084 46.4231 47.3724 46.4231C47.3389 46.8233 47.4208 47.2246 47.6084 47.5796L46.9004 47.8156C46.2529 47.0244 45.8799 46.0443 45.8373 45.0229C45.7948 44.0014 46.085 42.9937 46.6644 42.1514C47.669 41.1395 48.9979 40.5139 50.4179 40.3844C51.8379 40.255 53.2581 40.6299 54.4291 41.4433L54.1931 42.1514C53.0661 41.8437 51.8682 41.9269 50.7946 42.3874C50.6289 42.4665 50.4828 42.5812 50.3664 42.7232C50.2501 42.8651 50.1664 43.031 50.1214 43.2089C50.0763 43.3869 50.071 43.5726 50.1058 43.7528C50.1405 43.933 50.2145 44.1034 50.3225 44.2519C54.2875 51.9222 66.088 53.4799 79.9654 52.2998C80.3522 52.3455 80.7428 52.2551 81.0702 52.0441C81.3975 51.833 81.6411 51.5145 81.7591 51.1434C82.7922 46.4587 85.0666 42.1382 88.3438 38.6348C86.0898 39.0032 83.8064 39.1613 81.5231 39.1068C74.4428 39.5789 70.2182 38.6348 69.0145 37.7144L69.2505 37.0063C69.4908 37.1325 69.7581 37.1983 70.0294 37.1983C70.3007 37.1983 70.568 37.1325 70.8082 37.0063C70.822 36.8783 70.8081 36.7488 70.7674 36.6266C70.7266 36.5044 70.6601 36.3925 70.5722 36.2983C69.2506 35.0475 63.1143 28.6988 63.1143 28.6988C62.4063 23.1053 54.4999 23.1053 51.5734 28.2976L50.6293 28.0616C50.8274 27.0514 51.2201 26.0895 51.7858 25.2294C48.9041 25.9994 46.3218 27.621 44.3764 29.8822C42.4311 32.1433 41.2132 34.9388 40.8821 37.9032C38.0736 61.9526 74.5608 56.2884 84.9688 66.0828C85.2048 66.3188 85.6769 67.0268 85.9129 66.5548C86.1489 66.0828 81.6883 60.4186 69.9114 57.846L69.9822 57.964ZM57.3084 28.9348C58.4899 28.9249 59.6452 29.2832 60.6137 29.9599C61.5822 30.6366 62.316 31.5981 62.7131 32.711C63.9167 35.3071 63.6571 37.8796 62.005 38.6112C60.8235 38.679 59.6534 38.3484 58.6821 37.6723C57.7108 36.9962 56.9944 36.0138 56.6476 34.8822C56.4116 34.4102 56.4116 34.1742 56.1756 33.7258H56.4116C56.6165 33.9411 56.8787 34.0932 57.1672 34.1643C57.4558 34.2354 57.7586 34.2224 58.0401 34.127C58.3303 33.8025 58.4908 33.3824 58.4908 32.947C58.4908 32.5116 58.3303 32.0914 58.0401 31.7669C57.8934 31.3818 57.6403 31.0464 57.3101 30.7998C56.98 30.5532 56.5865 30.4057 56.1756 30.3745L55.9396 30.1384C56.2811 29.6255 56.7651 29.2236 57.332 28.982M111.402 93.9084C102.259 99.6904 91.8201 103.105 81.0275 103.844C72.8289 104.265 64.6132 103.47 56.6476 101.484C56.6456 103.862 56.4084 106.234 55.9396 108.565C62.8114 110.184 69.8382 111.054 76.8973 111.161C75.3563 118.018 71.797 124.257 66.678 129.074C79.1866 129.522 90.7983 124.59 94.4092 118.005C89.2922 119.581 83.9477 120.291 78.5966 120.106C78.8326 119.397 79.3046 118.949 79.5406 118.241C90.3735 117.769 102.15 114.229 104.51 105.26C97.4623 109.273 89.5557 111.539 81.4523 111.869C81.4523 111.161 81.6883 110.712 81.6883 110.004C94.3148 108.447 107.815 102.924 111.355 93.9556" fill="white"/>
</svg>
