<svg width="145" height="152" viewBox="0 0 145 152" fill="none" xmlns="http://www.w3.org/2000/svg">
<path d="M67.4097 0C111.166 0 144.821 30.1857 144.821 74.9332C144.821 119.681 111.166 151.047 67.3625 151.047H18.178C13.5816 151.258 9.08903 149.637 5.68637 146.54C2.28372 143.443 0.248994 139.122 0.0287995 134.526V18.8808C-0.104924 16.5269 0.227954 14.1698 1.0083 11.9451C1.78864 9.72027 3.00105 7.67167 4.57582 5.91705C6.1506 4.16243 8.05667 2.73639 10.1844 1.72093C12.3122 0.705473 14.6197 0.12062 16.9743 0L67.4097 0Z" fill="#FF6900"/>
<path d="M117.774 58.743C117.538 60.6074 115.414 60.6074 114.376 58.979C111.308 53.8103 107.295 52.8427 100.947 52.3707C96.2265 52.1347 90.7275 52.6067 85.4173 52.6067H85.1813L84.8037 52.3943C84.59 52.2167 84.4545 51.9626 84.426 51.6863C85.3701 47.2257 89.1462 39.0125 93.1348 38.2573C94.9993 38.0213 99.2711 37.5492 101.608 37.5492C112.417 37.5256 118.246 50.0342 117.774 58.743V58.743ZM56.4588 101.484C64.4401 103.609 72.7166 104.406 80.9567 103.845C91.7472 103.112 102.186 99.7057 111.331 93.9321C107.933 102.924 94.4093 108.565 81.6647 109.91C81.6647 110.618 81.4287 111.066 81.4287 111.774C89.5321 111.444 97.4387 109.178 104.487 105.166C102.127 113.875 90.3263 117.439 79.517 118.147C79.2495 118.791 78.9339 119.414 78.573 120.011C83.9219 120.129 89.2588 119.453 94.4093 118.005C89.4295 127.21 68.2593 133.582 50.3698 125.085C54.1045 117.757 56.1984 109.704 56.506 101.484H56.4588ZM115.65 38.7293C113.673 36.8486 111.344 35.3777 108.796 34.4015C106.248 33.4253 103.532 32.9631 100.805 33.0415C93.7248 33.0415 87.8718 34.9059 79.1394 35.1419C73.2391 35.378 67.8345 22.4682 60.7778 20.7689C60.306 19.3837 59.5092 18.1318 58.454 17.1179C57.3988 16.1041 56.1159 15.3579 54.713 14.9418C53.31 14.5258 51.8278 14.4521 50.3905 14.7268C48.9532 15.0015 47.6026 15.6166 46.452 16.5207C42.4634 14.1606 36.2328 15.3643 36.2328 19.9193C31.7722 18.5268 26.0135 20.8633 28.468 26.9996C17.3991 27.2356 15.5347 37.2188 22.8038 38.0685C12.9621 43.3787 17.4463 52.8191 25.4707 51.0726C26.9104 65.2332 33.2354 83.5948 22.8746 88.1026C17.9754 89.298 12.8429 89.1348 8.02953 87.6306L0.00518799 85.4121V92.7048C6.65446 94.576 13.5365 95.4899 20.4437 95.4189C34.0615 94.0265 34.8167 82.7452 34.0615 72.8092C33.3062 62.8731 30.0965 51.9223 31.2529 43.8271L30.7809 43.3551C25.8483 48.5237 22.5442 47.1313 22.0721 45.4556C21.5293 42.2458 27.288 38.0213 30.6865 36.6052C30.6865 36.3692 30.9225 36.1332 30.9225 35.8972C27.8544 36.3692 24.1018 35.8972 23.8422 33.7967C23.5826 31.6962 29.0108 28.6281 36.1147 29.3361C36.3508 29.3361 36.3508 29.1001 36.5868 29.1001L35.2179 28.3212C34.866 28.24 34.5375 28.0791 34.2576 27.8509C33.9777 27.6227 33.7539 27.3333 33.6034 27.005C33.4529 26.6767 33.3798 26.3182 33.3897 25.9572C33.3995 25.5962 33.4921 25.2423 33.6602 24.9227C34.1855 24.3749 34.8275 23.9525 35.5384 23.6869C36.2494 23.4213 37.011 23.3194 37.7668 23.3886C39.9785 23.349 42.1737 23.7751 44.2099 24.6395C44.4459 24.6395 44.4459 24.4035 44.6819 24.4035C44.1648 23.9955 43.6974 23.5281 43.2895 23.011C43.004 22.6842 42.8466 22.2649 42.8466 21.831C42.8466 21.397 43.004 20.9777 43.2895 20.6509C44.2132 20.1937 45.2574 20.0389 46.274 20.2083C47.2907 20.3778 48.2282 20.8629 48.9537 21.595L50.1102 22.7514H50.4878L50.8182 22.539C50.4097 22.1169 50.1596 21.5666 50.1102 20.9813C50.031 20.8142 49.986 20.6331 49.9776 20.4484C49.9693 20.2637 49.9978 20.0792 50.0615 19.9056C50.1252 19.7321 50.2229 19.5729 50.3487 19.4375C50.4746 19.3021 50.6261 19.1931 50.7946 19.1168H51.0306C51.5637 19.0212 52.1131 19.0791 52.6146 19.2839C53.116 19.4886 53.5489 19.8318 53.8627 20.2733C54.4625 21.1783 54.9313 22.1636 55.2552 23.1998C52.4609 23.3221 49.7254 24.0427 47.2336 25.313C44.7418 26.5834 42.5517 28.3738 40.8114 30.5633C38.9143 33.3685 37.6744 36.5655 37.1841 39.9162C36.6937 43.2669 36.9655 46.6851 37.9792 49.9162C39.6766 57.1687 41.9576 64.2722 44.7999 71.1571V71.3931C50.5114 87.6306 61.3206 127.705 8.90277 148.946C11.6556 150.261 14.656 150.977 17.706 151.047H23.1106C32.2244 146.439 40.1855 139.841 46.4048 131.741C70.4306 142.22 92.2616 136.886 101.726 119.374C104.691 117.516 107.195 115.008 109.047 112.04C110.899 109.071 112.052 105.72 112.417 102.24C114.117 100.126 115.308 97.649 115.897 95.0011C116.487 92.3532 116.459 89.6051 115.815 86.9698C115.579 86.0257 114.659 86.0257 113.219 86.7338C93.6776 98.5343 76.4961 100.352 56.0104 94.2861C55.4647 87.8611 54.5188 81.4765 53.1783 75.1693C52.7063 66.9325 55.2788 62.8967 70.2182 67.853C76.7994 69.6552 82.9058 72.8776 88.1078 77.2934C89.6655 78.4498 91.8604 79.8895 93.0404 78.851C93.417 78.3764 93.6945 77.8311 93.8567 77.2474C94.0188 76.6636 94.0623 76.0533 93.9844 75.4525C93.5365 70.2935 92.077 65.2732 89.6891 60.6782C94.162 60.4336 98.6451 60.4336 103.118 60.6782C104.643 60.7551 106.109 61.2893 107.325 62.2112C108.542 63.1331 109.452 64.4 109.939 65.8469C111.496 70.5671 120.772 69.2454 121.48 65.3748C122.872 57.1381 123.344 46.258 115.343 38.7293H115.65V38.7293ZM11.0977 109.532C7.41181 109.296 3.71464 109.296 0.028789 109.532V114.465C6.35386 113.073 10.248 112.364 10.248 112.364L11.0977 109.532Z" fill="black"/>
<path d="M69.9822 57.964C61.7454 56.0996 52.6118 53.7159 47.8444 46.6592C47.8444 46.4231 47.6084 46.4231 47.3724 46.4231C47.3389 46.8233 47.4208 47.2246 47.6084 47.5796L46.9004 47.8156C46.2529 47.0244 45.8799 46.0443 45.8373 45.0229C45.7948 44.0014 46.085 42.9937 46.6644 42.1514C47.669 41.1395 48.9979 40.5139 50.4179 40.3844C51.8379 40.255 53.2581 40.6299 54.4291 41.4433L54.1931 42.1514C53.0661 41.8437 51.8682 41.9269 50.7946 42.3874C50.6289 42.4665 50.4828 42.5812 50.3664 42.7232C50.2501 42.8651 50.1664 43.031 50.1214 43.2089C50.0763 43.3869 50.071 43.5726 50.1058 43.7528C50.1405 43.933 50.2145 44.1034 50.3225 44.2519C54.2875 51.9222 66.088 53.4799 79.9654 52.2998C80.3522 52.3455 80.7428 52.2551 81.0702 52.0441C81.3975 51.833 81.6411 51.5145 81.7591 51.1434C82.7922 46.4587 85.0666 42.1382 88.3438 38.6348C86.0898 39.0032 83.8064 39.1613 81.5231 39.1068C74.4428 39.5789 70.2182 38.6348 69.0145 37.7144L69.2505 37.0063C69.4908 37.1325 69.7581 37.1983 70.0294 37.1983C70.3007 37.1983 70.568 37.1325 70.8082 37.0063C70.822 36.8783 70.8081 36.7488 70.7674 36.6266C70.7266 36.5044 70.6601 36.3925 70.5722 36.2983C69.2506 35.0475 63.1143 28.6988 63.1143 28.6988C62.4063 23.1053 54.4999 23.1053 51.5734 28.2976L50.6293 28.0616C50.8274 27.0514 51.2201 26.0895 51.7858 25.2294C48.9041 25.9994 46.3218 27.621 44.3764 29.8822C42.4311 32.1433 41.2132 34.9388 40.8821 37.9032C38.0736 61.9526 74.5608 56.2884 84.9688 66.0828C85.2048 66.3188 85.6769 67.0268 85.9129 66.5548C86.1489 66.0828 81.6883 60.4186 69.9114 57.846L69.9822 57.964ZM57.3084 28.9348C58.4899 28.9249 59.6452 29.2832 60.6137 29.9599C61.5822 30.6366 62.316 31.5981 62.7131 32.711C63.9167 35.3071 63.6571 37.8796 62.005 38.6112C60.8235 38.679 59.6534 38.3484 58.6821 37.6723C57.7108 36.9962 56.9944 36.0138 56.6476 34.8822C56.4116 34.4102 56.4116 34.1742 56.1756 33.7258H56.4116C56.6165 33.9411 56.8787 34.0932 57.1672 34.1643C57.4558 34.2354 57.7586 34.2224 58.0401 34.127C58.3303 33.8025 58.4908 33.3824 58.4908 32.947C58.4908 32.5116 58.3303 32.0914 58.0401 31.7669C57.8934 31.3818 57.6403 31.0464 57.3101 30.7998C56.98 30.5532 56.5865 30.4057 56.1756 30.3745L55.9396 30.1384C56.2811 29.6255 56.7651 29.2236 57.332 28.982M111.402 93.9084C102.259 99.6904 91.8201 103.105 81.0275 103.844C72.8289 104.265 64.6132 103.47 56.6476 101.484C56.6456 103.862 56.4084 106.234 55.9396 108.565C62.8114 110.184 69.8382 111.054 76.8973 111.161C75.3563 118.018 71.797 124.257 66.678 129.074C79.1866 129.522 90.7983 124.59 94.4092 118.005C89.2922 119.581 83.9477 120.291 78.5966 120.106C78.8326 119.397 79.3046 118.949 79.5406 118.241C90.3735 117.769 102.15 114.229 104.51 105.26C97.4623 109.273 89.5557 111.539 81.4523 111.869C81.4523 111.161 81.6883 110.712 81.6883 110.004C94.3148 108.447 107.815 102.924 111.355 93.9556" fill="white"/>
</svg>
